<mxfile host="app.diagrams.net" agent="Mozilla/5.0 (Macintosh; Intel Mac OS X 10_15_7) AppleWebKit/537.36 (KHTML, like Gecko) Chrome/129.0.0.0 Safari/537.36" version="24.7.17">
  <diagram name="Page-1" id="Sv5gI3gqzeROYnk_uYD1">
    <mxGraphModel dx="937" dy="595" grid="1" gridSize="10" guides="1" tooltips="1" connect="1" arrows="1" fold="1" page="1" pageScale="1" pageWidth="827" pageHeight="1169" math="0" shadow="0">
      <root>
        <mxCell id="0" />
        <mxCell id="1" parent="0" />
        <mxCell id="BDSq2zJ9L96WWRfWfA0I-2" value="TrafficLight" style="swimlane;fontStyle=1;align=center;verticalAlign=top;childLayout=stackLayout;horizontal=1;startSize=26;horizontalStack=0;resizeParent=1;resizeParentMax=0;resizeLast=0;collapsible=1;marginBottom=0;labelBackgroundColor=none;fillColor=#B2C9AB;strokeColor=#788AA3;fontColor=#46495D;rounded=1;labelBorderColor=none;textShadow=0;whiteSpace=wrap;html=1;" vertex="1" parent="1">
          <mxGeometry x="318" y="80" width="190" height="268" as="geometry" />
        </mxCell>
        <mxCell id="BDSq2zJ9L96WWRfWfA0I-10" value="- redPin : int" style="text;strokeColor=none;fillColor=none;align=left;verticalAlign=top;spacingLeft=4;spacingRight=4;overflow=hidden;rotatable=0;points=[[0,0.5],[1,0.5]];portConstraint=eastwest;whiteSpace=wrap;html=1;labelBackgroundColor=none;fontColor=#46495D;rounded=1;" vertex="1" parent="BDSq2zJ9L96WWRfWfA0I-2">
          <mxGeometry y="26" width="190" height="26" as="geometry" />
        </mxCell>
        <mxCell id="BDSq2zJ9L96WWRfWfA0I-9" value="- yellowPin : int" style="text;strokeColor=none;fillColor=none;align=left;verticalAlign=top;spacingLeft=4;spacingRight=4;overflow=hidden;rotatable=0;points=[[0,0.5],[1,0.5]];portConstraint=eastwest;whiteSpace=wrap;html=1;labelBackgroundColor=none;fontColor=#46495D;rounded=1;" vertex="1" parent="BDSq2zJ9L96WWRfWfA0I-2">
          <mxGeometry y="52" width="190" height="26" as="geometry" />
        </mxCell>
        <mxCell id="BDSq2zJ9L96WWRfWfA0I-11" value="- greenPin : int" style="text;strokeColor=none;fillColor=none;align=left;verticalAlign=top;spacingLeft=4;spacingRight=4;overflow=hidden;rotatable=0;points=[[0,0.5],[1,0.5]];portConstraint=eastwest;whiteSpace=wrap;html=1;labelBackgroundColor=none;fontColor=#46495D;rounded=1;" vertex="1" parent="BDSq2zJ9L96WWRfWfA0I-2">
          <mxGeometry y="78" width="190" height="26" as="geometry" />
        </mxCell>
        <mxCell id="BDSq2zJ9L96WWRfWfA0I-12" value="- currentState : TrafficState" style="text;strokeColor=none;fillColor=none;align=left;verticalAlign=top;spacingLeft=4;spacingRight=4;overflow=hidden;rotatable=0;points=[[0,0.5],[1,0.5]];portConstraint=eastwest;whiteSpace=wrap;html=1;labelBackgroundColor=none;fontColor=#46495D;rounded=1;" vertex="1" parent="BDSq2zJ9L96WWRfWfA0I-2">
          <mxGeometry y="104" width="190" height="26" as="geometry" />
        </mxCell>
        <mxCell id="BDSq2zJ9L96WWRfWfA0I-3" value="-afterGreen : bool" style="text;strokeColor=none;fillColor=none;align=left;verticalAlign=top;spacingLeft=4;spacingRight=4;overflow=hidden;rotatable=0;points=[[0,0.5],[1,0.5]];portConstraint=eastwest;whiteSpace=wrap;html=1;labelBackgroundColor=none;fontColor=#46495D;rounded=1;" vertex="1" parent="BDSq2zJ9L96WWRfWfA0I-2">
          <mxGeometry y="130" width="190" height="26" as="geometry" />
        </mxCell>
        <mxCell id="BDSq2zJ9L96WWRfWfA0I-4" value="" style="line;strokeWidth=1;fillColor=none;align=left;verticalAlign=middle;spacingTop=-1;spacingLeft=3;spacingRight=3;rotatable=0;labelPosition=right;points=[];portConstraint=eastwest;strokeColor=#788AA3;labelBackgroundColor=none;fontColor=#46495D;rounded=1;" vertex="1" parent="BDSq2zJ9L96WWRfWfA0I-2">
          <mxGeometry y="156" width="190" height="8" as="geometry" />
        </mxCell>
        <mxCell id="BDSq2zJ9L96WWRfWfA0I-13" value="+ TrafficLight()" style="text;strokeColor=none;fillColor=none;align=left;verticalAlign=top;spacingLeft=4;spacingRight=4;overflow=hidden;rotatable=0;points=[[0,0.5],[1,0.5]];portConstraint=eastwest;whiteSpace=wrap;html=1;labelBackgroundColor=none;fontColor=#46495D;rounded=1;" vertex="1" parent="BDSq2zJ9L96WWRfWfA0I-2">
          <mxGeometry y="164" width="190" height="26" as="geometry" />
        </mxCell>
        <mxCell id="BDSq2zJ9L96WWRfWfA0I-14" value="+ setState(state) : void" style="text;strokeColor=none;fillColor=none;align=left;verticalAlign=top;spacingLeft=4;spacingRight=4;overflow=hidden;rotatable=0;points=[[0,0.5],[1,0.5]];portConstraint=eastwest;whiteSpace=wrap;html=1;labelBackgroundColor=none;fontColor=#46495D;rounded=1;" vertex="1" parent="BDSq2zJ9L96WWRfWfA0I-2">
          <mxGeometry y="190" width="190" height="26" as="geometry" />
        </mxCell>
        <mxCell id="BDSq2zJ9L96WWRfWfA0I-15" value="+ transition() : void" style="text;strokeColor=none;fillColor=none;align=left;verticalAlign=top;spacingLeft=4;spacingRight=4;overflow=hidden;rotatable=0;points=[[0,0.5],[1,0.5]];portConstraint=eastwest;whiteSpace=wrap;html=1;labelBackgroundColor=none;fontColor=#46495D;rounded=1;" vertex="1" parent="BDSq2zJ9L96WWRfWfA0I-2">
          <mxGeometry y="216" width="190" height="26" as="geometry" />
        </mxCell>
        <mxCell id="BDSq2zJ9L96WWRfWfA0I-5" value="+ switchLight() : void" style="text;strokeColor=none;fillColor=none;align=left;verticalAlign=top;spacingLeft=4;spacingRight=4;overflow=hidden;rotatable=0;points=[[0,0.5],[1,0.5]];portConstraint=eastwest;whiteSpace=wrap;html=1;labelBackgroundColor=none;fontColor=#46495D;rounded=1;" vertex="1" parent="BDSq2zJ9L96WWRfWfA0I-2">
          <mxGeometry y="242" width="190" height="26" as="geometry" />
        </mxCell>
        <mxCell id="BDSq2zJ9L96WWRfWfA0I-16" value="" style="ellipse;html=1;shape=startState;fillColor=#000000;strokeColor=#ff0000;rounded=1;fontColor=#46495D;" vertex="1" parent="1">
          <mxGeometry x="398" y="430" width="30" height="30" as="geometry" />
        </mxCell>
        <mxCell id="BDSq2zJ9L96WWRfWfA0I-17" value="" style="edgeStyle=orthogonalEdgeStyle;html=1;verticalAlign=bottom;endArrow=open;endSize=8;strokeColor=#ff0000;rounded=1;fontColor=#46495D;fillColor=#B2C9AB;" edge="1" source="BDSq2zJ9L96WWRfWfA0I-16" parent="1">
          <mxGeometry relative="1" as="geometry">
            <mxPoint x="413" y="520" as="targetPoint" />
          </mxGeometry>
        </mxCell>
        <mxCell id="BDSq2zJ9L96WWRfWfA0I-18" value="RED" style="rounded=1;whiteSpace=wrap;html=1;arcSize=40;fontColor=#000000;fillColor=#ffffc0;strokeColor=#ff0000;" vertex="1" parent="1">
          <mxGeometry x="354" y="520" width="120" height="40" as="geometry" />
        </mxCell>
        <mxCell id="BDSq2zJ9L96WWRfWfA0I-19" value="" style="edgeStyle=orthogonalEdgeStyle;html=1;verticalAlign=bottom;endArrow=open;endSize=8;strokeColor=#ff0000;rounded=1;fontColor=#46495D;fillColor=#B2C9AB;" edge="1" source="BDSq2zJ9L96WWRfWfA0I-18" parent="1">
          <mxGeometry relative="1" as="geometry">
            <mxPoint x="414" y="620" as="targetPoint" />
          </mxGeometry>
        </mxCell>
        <mxCell id="BDSq2zJ9L96WWRfWfA0I-25" value="YELLOW" style="rounded=1;whiteSpace=wrap;html=1;arcSize=40;fontColor=#000000;fillColor=#ffffc0;strokeColor=#ff0000;" vertex="1" parent="1">
          <mxGeometry x="354" y="620" width="120" height="40" as="geometry" />
        </mxCell>
        <mxCell id="BDSq2zJ9L96WWRfWfA0I-26" value="" style="edgeStyle=orthogonalEdgeStyle;html=1;verticalAlign=bottom;endArrow=open;endSize=8;strokeColor=#ff0000;rounded=1;fontColor=#46495D;fillColor=#B2C9AB;" edge="1" source="BDSq2zJ9L96WWRfWfA0I-25" parent="1">
          <mxGeometry relative="1" as="geometry">
            <mxPoint x="414" y="720" as="targetPoint" />
          </mxGeometry>
        </mxCell>
        <mxCell id="BDSq2zJ9L96WWRfWfA0I-27" value="afterGreen" style="rhombus;whiteSpace=wrap;html=1;fontColor=#000000;fillColor=#ffffc0;strokeColor=#ff0000;rounded=1;" vertex="1" parent="1">
          <mxGeometry x="380" y="720" width="80" height="40" as="geometry" />
        </mxCell>
        <mxCell id="BDSq2zJ9L96WWRfWfA0I-28" value="false" style="edgeStyle=orthogonalEdgeStyle;html=1;align=left;verticalAlign=bottom;endArrow=open;endSize=8;strokeColor=#ff0000;rounded=1;fontColor=#46495D;fillColor=#B2C9AB;" edge="1" source="BDSq2zJ9L96WWRfWfA0I-27" parent="1">
          <mxGeometry x="-1" relative="1" as="geometry">
            <mxPoint x="560" y="740" as="targetPoint" />
            <mxPoint as="offset" />
          </mxGeometry>
        </mxCell>
        <mxCell id="BDSq2zJ9L96WWRfWfA0I-29" value="true" style="edgeStyle=orthogonalEdgeStyle;html=1;align=left;verticalAlign=top;endArrow=open;endSize=8;strokeColor=#ff0000;rounded=1;fontColor=#46495D;fillColor=#B2C9AB;" edge="1" source="BDSq2zJ9L96WWRfWfA0I-27" parent="1">
          <mxGeometry x="-1" relative="1" as="geometry">
            <mxPoint x="420" y="820" as="targetPoint" />
          </mxGeometry>
        </mxCell>
        <mxCell id="BDSq2zJ9L96WWRfWfA0I-30" value="GREEN" style="rounded=1;whiteSpace=wrap;html=1;arcSize=40;fontColor=#000000;fillColor=#ffffc0;strokeColor=#ff0000;" vertex="1" parent="1">
          <mxGeometry x="560" y="720" width="120" height="40" as="geometry" />
        </mxCell>
        <mxCell id="BDSq2zJ9L96WWRfWfA0I-32" value="RED" style="rounded=1;whiteSpace=wrap;html=1;arcSize=40;fontColor=#000000;fillColor=#ffffc0;strokeColor=#ff0000;" vertex="1" parent="1">
          <mxGeometry x="360" y="820" width="120" height="40" as="geometry" />
        </mxCell>
        <mxCell id="BDSq2zJ9L96WWRfWfA0I-42" value="" style="endArrow=open;endFill=1;endSize=12;html=1;rounded=1;strokeColor=#FF0000;fontColor=#46495D;fillColor=#f8cecc;" edge="1" parent="1">
          <mxGeometry width="160" relative="1" as="geometry">
            <mxPoint x="634" y="639.52" as="sourcePoint" />
            <mxPoint x="474" y="639.52" as="targetPoint" />
          </mxGeometry>
        </mxCell>
        <mxCell id="BDSq2zJ9L96WWRfWfA0I-44" value="" style="edgeStyle=orthogonalEdgeStyle;html=1;verticalAlign=bottom;endArrow=open;endSize=8;strokeColor=#ff0000;rounded=1;fontColor=#46495D;fillColor=#B2C9AB;exitX=0.585;exitY=-0.077;exitDx=0;exitDy=0;exitPerimeter=0;" edge="1" parent="1" source="BDSq2zJ9L96WWRfWfA0I-30">
          <mxGeometry relative="1" as="geometry">
            <mxPoint x="630" y="640" as="targetPoint" />
            <mxPoint x="630" y="710" as="sourcePoint" />
            <Array as="points">
              <mxPoint x="630" y="678" />
              <mxPoint x="631" y="640" />
            </Array>
          </mxGeometry>
        </mxCell>
        <mxCell id="BDSq2zJ9L96WWRfWfA0I-45" value="" style="edgeStyle=orthogonalEdgeStyle;html=1;verticalAlign=bottom;endArrow=open;endSize=8;strokeColor=#ff0000;rounded=1;fontColor=#46495D;fillColor=#B2C9AB;exitX=0.011;exitY=0.47;exitDx=0;exitDy=0;exitPerimeter=0;" edge="1" parent="1" source="BDSq2zJ9L96WWRfWfA0I-46">
          <mxGeometry relative="1" as="geometry">
            <mxPoint x="300" y="643" as="targetPoint" />
            <mxPoint x="300" y="720" as="sourcePoint" />
            <Array as="points">
              <mxPoint x="301" y="643" />
            </Array>
          </mxGeometry>
        </mxCell>
        <mxCell id="BDSq2zJ9L96WWRfWfA0I-46" value="" style="line;strokeWidth=1;fillColor=#FF0000;align=left;verticalAlign=middle;spacingTop=-1;spacingLeft=3;spacingRight=3;rotatable=0;labelPosition=right;points=[];portConstraint=eastwest;strokeColor=#b85450;rounded=1;shadow=0;" vertex="1" parent="1">
          <mxGeometry x="300" y="836" width="58" height="8" as="geometry" />
        </mxCell>
        <mxCell id="BDSq2zJ9L96WWRfWfA0I-50" value="" style="endArrow=open;endFill=1;endSize=12;html=1;rounded=1;strokeColor=#FF0000;fontColor=#46495D;fillColor=#f8cecc;" edge="1" parent="1">
          <mxGeometry width="160" relative="1" as="geometry">
            <mxPoint x="300" y="640" as="sourcePoint" />
            <mxPoint x="354" y="639.52" as="targetPoint" />
          </mxGeometry>
        </mxCell>
      </root>
    </mxGraphModel>
  </diagram>
</mxfile>
